<?xml version="1.0" encoding="UTF-8" standalone="no"?>
<!-- Created with Inkscape (http://www.inkscape.org/) -->

<svg
   xmlns:dc="http://purl.org/dc/elements/1.1/"
   xmlns:cc="http://creativecommons.org/ns#"
   xmlns:rdf="http://www.w3.org/1999/02/22-rdf-syntax-ns#"
   xmlns:svg="http://www.w3.org/2000/svg"
   xmlns="http://www.w3.org/2000/svg"
   xmlns:sodipodi="http://sodipodi.sourceforge.net/DTD/sodipodi-0.dtd"
   xmlns:inkscape="http://www.inkscape.org/namespaces/inkscape"
   width="28"
   height="28"
   viewBox="0 0 7.4083332 7.4083336"
   version="1.1"
   id="svg8"
   inkscape:version="0.92.3 (2405546, 2018-03-11)"
   sodipodi:docname="file-missing_red2_28.svg"
   inkscape:export-filename="/home/martin/Pictures/Icons_job/file-missing/file-missing_28.png"
   inkscape:export-xdpi="96"
   inkscape:export-ydpi="96"
   style="shape-rendering:crispEdges">
  <defs
     id="defs2" />
  <sodipodi:namedview
     id="base"
     pagecolor="#ffffff"
     bordercolor="#666666"
     borderopacity="1.0"
     inkscape:pageopacity="0.0"
     inkscape:pageshadow="2"
     inkscape:zoom="22.627418"
     inkscape:cx="-5.9457575"
     inkscape:cy="15.59461"
     inkscape:document-units="px"
     inkscape:current-layer="layer1"
     showgrid="true"
     units="px"
     inkscape:pagecheckerboard="false"
     gridtolerance="10"
     inkscape:snap-perpendicular="false"
     inkscape:snap-tangential="false"
     inkscape:window-width="1910"
     inkscape:window-height="1012"
     inkscape:window-x="0"
     inkscape:window-y="38"
     inkscape:window-maximized="0"
     objecttolerance="10"
     guidetolerance="10">
    <inkscape:grid
       type="xygrid"
       id="grid3699"
       dotted="false"
       spacingx="0.26458334"
       spacingy="0.26458334" />
  </sodipodi:namedview>
  <metadata
     id="metadata5">
    <rdf:RDF>
      <cc:Work
         rdf:about="">
        <dc:format>image/svg+xml</dc:format>
        <dc:type
           rdf:resource="http://purl.org/dc/dcmitype/StillImage" />
        <dc:title />
      </cc:Work>
    </rdf:RDF>
  </metadata>
  <g
     inkscape:label="Layer 1"
     inkscape:groupmode="layer"
     id="layer1"
     transform="translate(0,-289.59164)">
    <path
       style="fill:#f2f2f9;fill-opacity:1;stroke:#ff0202;stroke-width:0.26458332;stroke-linecap:butt;stroke-linejoin:miter;stroke-miterlimit:4;stroke-dasharray:none;stroke-opacity:1;shape-rendering:crispEdges"
       d="m 6.4790615,294.35399 v -2.77803 l -1.7623104,-1.85202 -3.5230438,10e-6 -0.00295,1.85201 h 0.6610379 c 0.6028218,0 1.5981344,0.90535 1.7186983,1.24764 0.1205641,0.45639 0.3966226,0.86895 0.3966226,0.86895 0,0 0.6843243,0.26458 0.9254529,0.26458 h 0.6610379 c 0.120564,0 0.6544093,0.66143 0.6544093,0.66143 h 0.2710434 z m 0,1.19058 v 1.32286 l -5.285354,2.5e-4 -0.00295,-4.10113 v 0.13228 H 1.0701947 1.3113232 c 0.3014109,0 1.1060009,-0.0227 1.2241967,0.81024 0.1103135,0.77736 1.4566849,1.57111 1.6978135,1.57111 0.9299643,1e-5 0.8063893,-1.8e-4 1.1880675,-1.9e-4 0.120564,10e-6 0.2760584,0.26458 0.3966227,0.26458 h 0.7965598"
       id="path839-9-6"
       inkscape:connector-curvature="0"
       sodipodi:nodetypes="ccccccccccccccccccccscccc" />
    <path
       style="fill:#d0d0df;fill-opacity:1;stroke:#ff0202;stroke-width:0.26458332px;stroke-linecap:butt;stroke-linejoin:miter;stroke-opacity:1"
       d="m 4.6302084,289.85622 1e-7,1.98438 1.984375,0"
       id="path1039-2"
       inkscape:connector-curvature="0"
       sodipodi:nodetypes="ccc" />
  </g>
</svg>
