<?xml version="1.0" encoding="UTF-8" standalone="no"?>
<svg
   xmlns:dc="http://purl.org/dc/elements/1.1/"
   xmlns:cc="http://creativecommons.org/ns#"
   xmlns:rdf="http://www.w3.org/1999/02/22-rdf-syntax-ns#"
   xmlns:svg="http://www.w3.org/2000/svg"
   xmlns="http://www.w3.org/2000/svg"
   xmlns:xlink="http://www.w3.org/1999/xlink"
   xmlns:sodipodi="http://sodipodi.sourceforge.net/DTD/sodipodi-0.dtd"
   xmlns:inkscape="http://www.inkscape.org/namespaces/inkscape"
   width="32"
   height="32"
   viewBox="0 0 8.467 8.467"
   shape-rendering="crispEdges"
   version="1.1"
   id="svg24"
   sodipodi:docname="vfolder_open.svg"
   inkscape:version="1.0.2-2 (e86c870879, 2021-01-15)">
  <metadata
     id="metadata28">
    <rdf:RDF>
      <cc:Work
         rdf:about="">
        <dc:format>image/svg+xml</dc:format>
        <dc:type
           rdf:resource="http://purl.org/dc/dcmitype/StillImage" />
      </cc:Work>
    </rdf:RDF>
  </metadata>
  <sodipodi:namedview
     pagecolor="#ffffff"
     bordercolor="#666666"
     borderopacity="1"
     objecttolerance="10"
     gridtolerance="10"
     guidetolerance="10"
     inkscape:pageopacity="0"
     inkscape:pageshadow="2"
     inkscape:window-width="1920"
     inkscape:window-height="1018"
     id="namedview26"
     showgrid="false"
     inkscape:zoom="18.782524"
     inkscape:cx="5.7511111"
     inkscape:cy="16"
     inkscape:window-x="-8"
     inkscape:window-y="-8"
     inkscape:window-maximized="1"
     inkscape:current-layer="svg24" />
  <defs
     id="defs14">
    <linearGradient
       id="a">
      <stop
         style="stop-color:#59d162;stop-opacity:1"
         offset="0"
         id="stop2" />
      <stop
         style="stop-color:#a0e4a5;stop-opacity:1"
         offset="1"
         id="stop4" />
    </linearGradient>
    <linearGradient
       xlink:href="#a"
       id="d"
       x1="7.938"
       y1="294.486"
       x2="3.175"
       y2="293.56"
       gradientUnits="userSpaceOnUse"
       gradientTransform="matrix(1.05882,0,0,1,-0.49,-288.533)" />
    <linearGradient
       gradientTransform="translate(-0.661,-288.533)"
       xlink:href="#b"
       id="c"
       x1="6.879"
       y1="295.677"
       x2="1.191"
       y2="290.782"
       gradientUnits="userSpaceOnUse" />
    <linearGradient
       id="b">
      <stop
         style="stop-color:#59d162;stop-opacity:1"
         offset="0"
         id="stop9" />
      <stop
         style="stop-color:#a0e4a5;stop-opacity:1"
         offset="1"
         id="stop11" />
    </linearGradient>
  </defs>
  <path
     style="fill:url(#c);fill-opacity:1;stroke:#217828;stroke-width:0.264583px;stroke-linecap:butt;stroke-linejoin:miter;stroke-opacity:1"
     d="m 0.397,6.879 v -4.63 c 0,-0.206 0.28,-0.526 0.529,-0.529 0.282,-0.003 1.058,0 1.19,0 0.056,0 0.339,-0.02 0.509,0.167 0.26,0.286 0.815,0.891 0.815,0.891 h 2.778 c 0.264,0 0.529,0.28 0.529,0.53 v 3.44 l -0.53,0.528 c 0,0 -5.03,0.008 -5.432,0.013 C 0.588,7.291 0.397,7.077 0.397,6.879 Z"
     id="path16" />
  <path
     style="fill:url(#d);fill-opacity:1;stroke:#217828;stroke-width:0.264583px;stroke-linecap:butt;stroke-linejoin:miter;stroke-opacity:1"
     d="M 0.661,7.541 V 7.144 c 0,0 1.378,-1.381 1.985,-1.984 C 2.759,5.048 2.91,4.895 3.179,4.897 L 4.895,4.895 c 0.189,0 0.298,0.034 0.397,0.132 L 5.953,5.689 H 8.334 V 6.086 L 6.879,7.541 Z"
     id="path18" />
</svg>
