<?xml version="1.0" encoding="UTF-8" standalone="no"?>
<!-- Created with Inkscape (http://www.inkscape.org/) -->

<svg
   xmlns:dc="http://purl.org/dc/elements/1.1/"
   xmlns:cc="http://creativecommons.org/ns#"
   xmlns:rdf="http://www.w3.org/1999/02/22-rdf-syntax-ns#"
   xmlns:svg="http://www.w3.org/2000/svg"
   xmlns="http://www.w3.org/2000/svg"
   xmlns:xlink="http://www.w3.org/1999/xlink"
   xmlns:sodipodi="http://sodipodi.sourceforge.net/DTD/sodipodi-0.dtd"
   xmlns:inkscape="http://www.inkscape.org/namespaces/inkscape"
   width="24"
   height="24"
   viewBox="0 0 6.3499999 6.3500002"
   version="1.1"
   id="svg8"
   inkscape:version="0.92.3 (2405546, 2018-03-11)"
   sodipodi:docname="showdir_24.svg"
   inkscape:export-filename="folder_open_48.png"
   inkscape:export-xdpi="192"
   inkscape:export-ydpi="192"
   style="shape-rendering:crispEdges">
  <defs
     id="defs2">
    <linearGradient
       inkscape:collect="always"
       id="linearGradient868">
      <stop
         style="stop-color:#3291ea;stop-opacity:1"
         offset="0"
         id="stop864" />
      <stop
         style="stop-color:#7cb9f4;stop-opacity:1"
         offset="1"
         id="stop866" />
    </linearGradient>
    <linearGradient
       inkscape:collect="always"
       xlink:href="#linearGradient868"
       id="linearGradient870"
       x1="7.9375"
       y1="294.48642"
       x2="3.1750002"
       y2="293.56039"
       gradientUnits="userSpaceOnUse"
       gradientTransform="matrix(0.77089605,0,0,0.87447377,-0.20722888,37.429624)" />
    <linearGradient
       gradientTransform="matrix(0.77276072,0,0,0.79008687,-0.42096328,62.540131)"
       inkscape:collect="always"
       xlink:href="#linearGradient836"
       id="linearGradient838"
       x1="6.8791666"
       y1="295.67706"
       x2="1.1906251"
       y2="290.78226"
       gradientUnits="userSpaceOnUse" />
    <linearGradient
       inkscape:collect="always"
       id="linearGradient836">
      <stop
         style="stop-color:#3291ea;stop-opacity:1"
         offset="0"
         id="stop832" />
      <stop
         style="stop-color:#b0d7fa;stop-opacity:1"
         offset="1"
         id="stop834" />
    </linearGradient>
    <linearGradient
       inkscape:collect="always"
       xlink:href="#linearGradient868-3"
       id="linearGradient906"
       x1="-0.56836355"
       y1="36"
       x2="10.568364"
       y2="36"
       gradientUnits="userSpaceOnUse" />
    <linearGradient
       inkscape:collect="always"
       id="linearGradient868-3">
      <stop
         style="stop-color:#b69526;stop-opacity:1"
         offset="0"
         id="stop864-6" />
      <stop
         style="stop-color:#dfc25a;stop-opacity:1"
         offset="1"
         id="stop866-7" />
    </linearGradient>
    <linearGradient
       inkscape:collect="always"
       xlink:href="#linearGradient860"
       id="linearGradient862"
       x1="21"
       y1="1041.3621"
       x2="8"
       y2="1023.3621"
       gradientUnits="userSpaceOnUse"
       gradientTransform="matrix(0.58333335,0,0,0.58333335,-0.37500032,437.35928)" />
    <linearGradient
       inkscape:collect="always"
       id="linearGradient860">
      <stop
         style="stop-color:#9bc3d4;stop-opacity:1"
         offset="0"
         id="stop861" />
      <stop
         style="stop-color:#f1f9fa;stop-opacity:1"
         offset="1"
         id="stop858" />
    </linearGradient>
    <linearGradient
       inkscape:collect="always"
       xlink:href="#linearGradient860"
       id="linearGradient862-5"
       x1="21"
       y1="1041.3621"
       x2="8"
       y2="1023.3621"
       gradientUnits="userSpaceOnUse"
       gradientTransform="matrix(0.58333335,0,0,0.58333335,-0.37500032,437.35928)" />
    <linearGradient
       inkscape:collect="always"
       xlink:href="#linearGradient868-3"
       id="linearGradient906-6"
       x1="-0.56836355"
       y1="36"
       x2="10.568364"
       y2="36"
       gradientUnits="userSpaceOnUse" />
    <linearGradient
       inkscape:collect="always"
       xlink:href="#linearGradient868"
       id="linearGradient870-1"
       x1="7.9375"
       y1="294.48642"
       x2="3.1750002"
       y2="293.56039"
       gradientUnits="userSpaceOnUse"
       gradientTransform="matrix(0.63491503,0,0,0.72022232,-0.05282814,83.360749)" />
    <linearGradient
       gradientTransform="matrix(0.63645078,0,0,0.65072071,-0.27670196,103.84292)"
       inkscape:collect="always"
       xlink:href="#linearGradient836-3"
       id="linearGradient838-9"
       x1="6.8791666"
       y1="295.67706"
       x2="1.1906251"
       y2="290.78226"
       gradientUnits="userSpaceOnUse" />
    <linearGradient
       inkscape:collect="always"
       id="linearGradient836-3">
      <stop
         style="stop-color:#3392ea;stop-opacity:1"
         offset="0"
         id="stop832-6" />
      <stop
         style="stop-color:#afd7fa;stop-opacity:1"
         offset="1"
         id="stop834-0" />
    </linearGradient>
  </defs>
  <sodipodi:namedview
     id="base"
     pagecolor="#ffffff"
     bordercolor="#666666"
     borderopacity="1.0"
     inkscape:pageopacity="0.0"
     inkscape:pageshadow="2"
     inkscape:zoom="11.313709"
     inkscape:cx="-29.624172"
     inkscape:cy="14.469761"
     inkscape:document-units="px"
     inkscape:current-layer="layer1"
     showgrid="true"
     units="px"
     inkscape:pagecheckerboard="false"
     gridtolerance="10"
     inkscape:snap-perpendicular="false"
     inkscape:snap-tangential="false"
     inkscape:window-width="1920"
     inkscape:window-height="1013"
     inkscape:window-x="0"
     inkscape:window-y="38"
     inkscape:window-maximized="1"
     objecttolerance="10"
     guidetolerance="10">
    <inkscape:grid
       type="xygrid"
       id="grid3699"
       dotted="false"
       spacingx="0.13229167"
       spacingy="0.13229167"
       color="#ff3f3f"
       opacity="0.1254902"
       empcolor="#ff3f3f"
       empopacity="0.25098039" />
  </sodipodi:namedview>
  <metadata
     id="metadata5">
    <rdf:RDF>
      <cc:Work
         rdf:about="">
        <dc:format>image/svg+xml</dc:format>
        <dc:type
           rdf:resource="http://purl.org/dc/dcmitype/StillImage" />
        <dc:title />
      </cc:Work>
    </rdf:RDF>
  </metadata>
  <g
     inkscape:label="Layer 1"
     inkscape:groupmode="layer"
     id="layer1"
     transform="translate(0,-290.64997)">
    <path
       style="fill:url(#linearGradient838);fill-opacity:1;stroke:#005cb1;stroke-width:0.26458335px;stroke-linecap:butt;stroke-linejoin:miter;stroke-opacity:1"
       d="m 0.39687501,295.94164 -8.9641e-4,-3.70248 c -3.942e-5,-0.16285 0.20250782,-0.39443 0.39526015,-0.39687 0.21770675,-0.002 0.82865625,-0.003 0.93088625,-0.003 0.043081,0 0.2329931,-5.7e-4 0.3645773,0.14682 0.201478,0.22578 0.6614584,0.66145 0.6614584,0.66145 0,0 1.8099772,10e-6 2.1166666,10e-6 0.2044594,0 0.5291667,0.19977 0.5291667,0.39687 l 10e-8,2.78226 -0.4990075,0.42874 c 0,0 -3.8879276,0.006 -4.19781185,0.0102 -0.15238671,0.002 -0.30029999,-0.16752 -0.30029976,-0.32336 z"
       id="path830"
       inkscape:connector-curvature="0"
       sodipodi:nodetypes="csssscssccssc" />
    <path
       style="fill:url(#linearGradient870);fill-opacity:1;stroke:#005cb1;stroke-width:0.26458335px;stroke-linecap:butt;stroke-linejoin:miter;stroke-opacity:1"
       d="m 0.63129903,296.33851 v -0.34706 c 0,0 1.04819177,-1.38307 1.48988177,-1.91024 0.082113,-0.098 0.1471593,-0.12802 0.3428044,-0.12621 0.00386,4e-5 0.8718904,-0.002 1.2491158,-0.002 0.137645,0 0.3184433,0.0521 0.3902381,0.13843 0.1524896,0.18313 0.3945777,0.65958 0.3945777,0.65958 h 1.7197917 l 0,0.31482 c -0.3422424,0.41106 -1.0594918,1.27254 -1.0594918,1.27254 z"
       id="path854"
       inkscape:connector-curvature="0"
       sodipodi:nodetypes="ccssssccccc" />
    <rect
       style="fill:url(#linearGradient906);fill-opacity:1;stroke:#644e00;stroke-width:0.82123303;stroke-linecap:round;stroke-linejoin:miter;stroke-miterlimit:4;stroke-dasharray:none;stroke-opacity:1;shape-rendering:crispEdges"
       id="rect898"
       width="10"
       height="4"
       x="0"
       y="34"
       transform="matrix(-0.2534501,-0.26121344,0.20493334,-0.19833262,-2.4474461,302.91082)"
       ry="1.4999999" />
    <circle
       transform="matrix(0.22397438,0,0,0.2238192,0.79700436,60.271207)"
       style="display:inline;fill:url(#linearGradient862);fill-opacity:1;stroke:#417e9a;stroke-width:1.18172002;stroke-miterlimit:4;stroke-dasharray:none;stroke-opacity:1;shape-rendering:crispEdges"
       id="path848"
       cx="7.5"
       cy="1039.8621"
       r="7" />
    <path
       transform="translate(-9.7895835,-0.264575)"
       style="fill:url(#linearGradient838-9);fill-opacity:1;stroke:#005cb1;stroke-width:0.26458335px;stroke-linecap:butt;stroke-linejoin:miter;stroke-opacity:1;shape-rendering:crispEdges"
       d="m 0.39687501,296.07393 -0.004574,-3.17697 c -1.931e-4,-0.13413 0.24740198,-0.26698 0.40615412,-0.26899 0.17930467,-0.002 0.65354787,0.002 0.73774517,0.002 0.035482,0 0.1913858,0.0368 0.320731,0.13554 0.1995561,0.15234 0.5243187,0.39787 0.5243187,0.39787 h 1.8520833 c 0.1683938,0 0.3969243,0.23454 0.396875,0.39687 l -7.384e-4,2.42835 -0.4109863,0.35311 c 0,0 -3.31905286,-0.004 -3.57427546,-7.7e-4 -0.12550676,0.002 -0.22678638,-0.13598 -0.24526182,-0.25392 z"
       id="path830-6"
       inkscape:connector-curvature="0"
       sodipodi:nodetypes="csssscssccssc" />
    <path
       transform="translate(-9.7895835,-0.264575)"
       style="fill:url(#linearGradient870-1);fill-opacity:1;stroke:#005cb1;stroke-width:0.26458335px;stroke-linecap:butt;stroke-linejoin:miter;stroke-opacity:1;shape-rendering:crispEdges"
       d="m 0.63778892,296.5998 v -0.28584 c 0,0 0.84882828,-1.26314 1.21260698,-1.69732 0.067629,-0.0807 0.09433,-0.13024 0.2554643,-0.12875 0.00318,4e-5 0.7594357,-0.002 1.070121,-0.002 0.1133653,0 0.2043946,0.0656 0.2635254,0.13675 0.1255909,0.15083 0.3969518,0.65753 0.3969518,0.65753 h 1.3229167 v 0.25929 c -0.2818727,0.33855 -0.7931873,1.05986 -0.7931873,1.05986 z"
       id="path854-2"
       inkscape:connector-curvature="0"
       sodipodi:nodetypes="ccssssccccc" />
    <rect
       style="fill:url(#linearGradient906-6);fill-opacity:1;stroke:#644e00;stroke-width:0.98522675;stroke-linecap:round;stroke-linejoin:miter;stroke-miterlimit:4;stroke-dasharray:none;stroke-opacity:1;shape-rendering:crispEdges"
       id="rect898-6"
       width="10"
       height="4"
       x="0"
       y="34"
       transform="matrix(-0.21116742,-0.21783192,0.17074463,-0.16539415,-11.520373,301.89139)"
       ry="1.4999999" />
    <circle
       transform="matrix(0.18660909,0,0,0.186648,-8.9942925,99.44848)"
       style="display:inline;opacity:1;fill:url(#linearGradient862-5);fill-opacity:1;stroke:#417e9a;stroke-width:1.41770005;stroke-miterlimit:4;stroke-dasharray:none;stroke-opacity:1;shape-rendering:crispEdges"
       id="path848-1"
       cx="7.5"
       cy="1039.8621"
       r="7" />
  </g>
</svg>
